<svg xmlns="http://www.w3.org/2000/svg" width="512" height="512" viewBox="0 0 512 512">
  <defs>
    <linearGradient id="bg" x1="0%" y1="0%" x2="100%" y2="100%">
      <stop offset="0%" style="stop-color:#0c1929"/>
      <stop offset="50%" style="stop-color:#132238"/>
      <stop offset="100%" style="stop-color:#1a2d47"/>
    </linearGradient>
    <linearGradient id="accent" x1="0%" y1="0%" x2="100%" y2="100%">
      <stop offset="0%" style="stop-color:#2563eb"/>
      <stop offset="100%" style="stop-color:#3b82f6"/>
    </linearGradient>
  </defs>

  <rect width="512" height="512" fill="url(#bg)"/>

  <g opacity="0.03" stroke="#fff" stroke-width="0.5">
    <line x1="0" y1="170" x2="512" y2="170"/>
    <line x1="0" y1="341" x2="512" y2="341"/>
    <line x1="170" y1="0" x2="170" y2="512"/>
    <line x1="341" y1="0" x2="341" y2="512"/>
  </g>

  <!-- Shield -->
  <g transform="translate(256,178) scale(2.05)">
    <path d="M0 -55 L45 -37 L45 -5 C45 22 27 42 0 52 C-27 42 -45 22 -45 -5 L-45 -37 Z"
          fill="#3b82f6" opacity="0.15" stroke="url(#accent)" stroke-width="2.5"/>
    <path d="M-24 22 L-8 -4 L2 6 L16 -12 L28 22 Z"
          fill="none" stroke="url(#accent)" stroke-width="2" stroke-linejoin="round"/>
    <circle cx="14" cy="-16" r="5" fill="none" stroke="url(#accent)" stroke-width="2"/>
  </g>

  <!-- Wordmark -->
  <text x="256" y="420" text-anchor="middle" font-family="system-ui,-apple-system,sans-serif" font-size="72" font-weight="700" fill="#e2e8f0" letter-spacing="6">PixKeep</text>
</svg>
